# xmcd
#
# Track frame offsets: 
#        150
#        22608
#        53870
#        88118
#        120583
#        143763
#        173138
#        204095
#        237113
#        269759
#
# Disc length: 3958 seconds
#
# Revision: 3
# Processed by: cddbd v1.5.2PL0 Copyright (c) Steve Scherf et al.
# Submitted via: ExactAudioCopy v1.0b4
#
DISCID=7d0f740a
DTITLE=Bill Evans Trio - Waltz For Debby [Live]
DYEAR=1961
DGENRE=Jazz
TTITLE0=My Foolish Heart
TTITLE1=Waltz For Debby (Take 2)
TTITLE2=Detour Ahead (Take 2)
TTITLE3=My Romance (Take 1)
TTITLE4=Some Other Time
TTITLE5=Milestones
TTITLE6=Waltz For Debby (Take 1)
TTITLE7=Detour Ahead (Take 1)
TTITLE8=My Romance (Take 2)
TTITLE9=Porgy (I Loves You, Porgy)
EXTD=YEAR: 1961
EXTT0=
EXTT1=
EXTT2=
EXTT3=
EXTT4=
EXTT5=
EXTT6=
EXTT7=
EXTT8=
EXTT9=
PLAYORDER=
